# xmcd
#
# Track frame offsets:
#	150
#	3175
#	27694
#	42315
#	54815
#	79805
#	102971
#	121887
#	140707
#	166555
#	186258
#	204094
#
# Disc length: 2884 seconds
#
# Revision: 0
# Processed by: cddbd v1.5.1PL0 Copyright (c) Steve Scherf et al.
# Submitted via: dBpowerAMP V4.0
#
DISCID=920b420c
DTITLE=Richard Lindgren - Postcard From Elsewhere
DYEAR=1900
DGENRE=Blues
TTITLE0=[Prologue]
TTITLE1=Grand Hotel
TTITLE2=Prescription Blackout
TTITLE3=Sugar
TTITLE4=Tennessee
TTITLE5=Living You Up
TTITLE6=Blue Sky Shut
TTITLE7=Skeleto Wind
TTITLE8=Lone Star Blues
TTITLE9=Memphis
TTITLE10=Exile In Dreamland
TTITLE11=Sweet Buttercup
EXTD=Swedish blues singer songwriter from Malmö
EXTT0=
EXTT1=
EXTT2=
EXTT3=
EXTT4=
EXTT5=
EXTT6=
EXTT7=
EXTT8=
EXTT9=
EXTT10=
EXTT11=
PLAYORDER=
